<svg width="1772" height="443" viewBox="0 0 1772 443" fill="none" xmlns="http://www.w3.org/2000/svg">
<mask id="mask0_241_312" style="mask-type:luminance" maskUnits="userSpaceOnUse" x="0" y="21" width="1772" height="401">
<path d="M1772 21.2578H0V421.748H1772V21.2578Z" fill="white"/>
</mask>
<g mask="url(#mask0_241_312)">
<path d="M864.178 125.238C828.177 125.238 792.695 140.69 765.608 171.069V21.2578H712.001V273.475C712.001 273.468 712.001 273.482 712.001 273.475C712.001 355.355 778.391 421.747 860.286 421.747C942.181 421.747 1008.57 355.372 1008.57 273.493C1008.57 191.616 946.071 125.238 864.178 125.238ZM860.286 364.644C809.932 364.644 769.114 323.835 769.114 273.493C769.114 223.15 809.932 182.339 860.286 182.339C910.64 182.339 951.458 223.15 951.458 273.493C951.458 323.835 910.64 364.644 860.286 364.644Z" fill="#121212"/>
<path d="M1196.3 125.238C1160.3 125.238 1124.82 140.69 1097.73 171.069V21.2578H1044.12V273.475C1044.12 273.468 1044.12 273.482 1044.12 273.475C1044.12 355.355 1110.51 421.747 1192.41 421.747C1274.3 421.747 1340.69 355.372 1340.69 273.493C1340.69 191.616 1278.19 125.238 1196.3 125.238ZM1192.41 364.644C1142.05 364.644 1101.23 323.835 1101.23 273.493C1101.23 223.15 1142.05 182.339 1192.41 182.339C1242.76 182.339 1283.58 223.15 1283.58 273.493C1283.58 323.835 1242.76 364.644 1192.41 364.644Z" fill="#121212"/>
<path d="M410.38 299.459V133.279H467.877V298.939C467.877 341.268 492.443 368.443 533.737 368.443C575.552 368.443 599.596 342.313 599.596 298.939V133.279H657.616V299.459C657.616 376.28 611.096 421.745 533.737 421.745C458.467 421.745 410.38 374.714 410.38 299.459Z" fill="#121212"/>
<path d="M1444.45 21.2578H1386.95V414.954H1444.45V21.2578Z" fill="#121212"/>
<path d="M1769.9 296.329H1549.84C1558.21 340.226 1589.05 370.013 1643.41 370.013C1675.29 370.013 1713.97 357.993 1739.06 339.703L1763.11 382.032C1734.36 403.458 1688.88 421.226 1641.32 421.226C1535.73 421.226 1490.26 347.54 1490.26 273.335C1490.26 231.004 1503.32 195.99 1529.98 168.292C1556.64 140.596 1591.66 126.486 1634 126.486C1674.25 126.486 1707.7 139.029 1733.31 164.634C1758.92 190.241 1771.99 224.732 1771.99 268.628C1771.99 276.47 1771.47 285.877 1769.9 296.329ZM1549.84 249.294H1713.97C1709.27 204.874 1676.34 176.133 1634 176.133C1590.61 176.133 1558.21 205.397 1549.84 249.294Z" fill="#121212"/>
<path d="M227.819 125.238C191.819 125.238 156.337 140.69 129.249 171.069V21.2578H75.6431V273.475C75.6431 273.468 75.6431 273.482 75.6431 273.475C75.6431 355.355 142.032 421.747 223.928 421.747C305.823 421.747 372.213 355.372 372.213 273.493C372.213 191.616 309.715 125.238 227.819 125.238ZM223.928 364.644C173.575 364.644 132.756 323.835 132.756 273.493C132.756 223.15 173.575 182.339 223.928 182.339C274.279 182.339 315.099 223.15 315.099 273.493C315.099 323.835 274.279 364.644 223.928 364.644Z" fill="#121212"/>
<path d="M36.6684 348.424C16.4165 348.424 0 364.839 0 385.084C0 405.332 16.4165 421.747 36.6684 421.747C56.9204 421.747 73.3369 405.332 73.3369 385.084C73.3369 364.839 56.9204 348.424 36.6684 348.424Z" fill="#0947D7"/>
</g>
</svg>
