<svg width="118" height="118" viewBox="0 0 118 118" fill="none" xmlns="http://www.w3.org/2000/svg">
<path d="M38.7199 25.4999L50.727 22.8014L56.1241 46.8157L44.117 49.5142C40.9325 50.2299 37.5941 49.6513 34.8363 47.9056C32.0784 46.1599 30.127 43.3901 29.4113 40.2056C28.6956 37.0211 29.2743 33.6828 31.02 30.9249C32.7657 28.1671 35.5354 26.2156 38.7199 25.4999Z" fill="#F4511E"/>
<path d="M68.1313 44.117L56.1241 46.8155L50.7271 22.8013L62.7342 20.1027C65.9187 19.387 69.257 19.9657 72.0149 21.7114C74.7727 23.4571 76.7241 26.2268 77.4398 29.4113C78.1555 32.5958 77.5769 35.9342 75.8312 38.692C74.0855 41.4499 71.3157 43.4013 68.1313 44.117Z" fill="#FF8A65"/>
<path d="M58.8226 58.8228C60.313 65.4542 66.8969 69.6218 73.5283 68.1314C80.1596 66.641 84.3272 60.0571 82.8369 53.4257C81.3465 46.7944 74.7626 42.6268 68.1312 44.1171C61.4998 45.6075 57.3322 52.1915 58.8226 58.8228Z" fill="#29B6F6"/>
<path d="M44.117 49.5141L56.1241 46.8156L61.5212 70.8298L49.5141 73.5284C46.3296 74.2441 42.9912 73.6654 40.2334 71.9197C37.4755 70.174 35.5241 67.4043 34.8084 64.2198C34.0927 61.0353 34.6714 57.6969 36.4171 54.9391C38.1628 52.1812 40.9325 50.2298 44.117 49.5141Z" fill="#7C4DFF"/>
<path d="M49.5141 73.5285L61.5212 70.83L64.2198 82.8371C64.9354 86.0216 64.3568 89.36 62.6111 92.1178C60.8654 94.8757 58.0956 96.8271 54.9112 97.5428C51.7267 98.2585 48.3883 97.6798 45.6305 95.9341C42.8726 94.1884 40.9212 91.4187 40.2055 88.2342C39.4898 85.0497 40.0684 81.7113 41.8141 78.9535C43.5598 76.1956 46.3296 74.2442 49.5141 73.5285Z" fill="#00E676"/>
</svg>
