<svg width="60" height="89" viewBox="0 0 60 89" fill="none" xmlns="http://www.w3.org/2000/svg">
<g clip-path="url(#clip0_2006_52)">
<path d="M15 88.9999C23.28 88.9999 30 82.3546 30 74.1666V59.3333H15C6.72 59.3333 0 65.9786 0 74.1666C0 82.3546 6.72 88.9999 15 88.9999Z" fill="#0ACF83"/>
<path d="M0 44.5001C0 36.3121 6.72 29.6667 15 29.6667H30V59.3334H15C6.72 59.3334 0 52.6881 0 44.5001Z" fill="#A259FF"/>
<path d="M0 14.8333C0 6.64533 6.72 0 15 0H30V29.6667H15C6.72 29.6667 0 23.0213 0 14.8333Z" fill="#F24E1E"/>
<path d="M30 0H45C53.28 0 60 6.64533 60 14.8333C60 23.0213 53.28 29.6667 45 29.6667H30V0Z" fill="#FF7262"/>
<path d="M60 44.5001C60 52.6881 53.28 59.3334 45 59.3334C36.72 59.3334 30 52.6881 30 44.5001C30 36.3121 36.72 29.6667 45 29.6667C53.28 29.6667 60 36.3121 60 44.5001Z" fill="#1ABCFE"/>
</g>
<defs>
<clipPath id="clip0_2006_52">
<rect width="60" height="89" fill="white"/>
</clipPath>
</defs>
</svg>
