<svg width="54" height="68" viewBox="0 0 54 68" fill="none" xmlns="http://www.w3.org/2000/svg">
<g clip-path="url(#clip0_2003_11)">
<path d="M16.8721 65.7156C19.7034 66.8548 22.7746 67.5311 25.9997 67.6437C30.2118 67.794 34.4001 66.9498 38.2251 65.1796C33.7756 63.4316 29.7461 60.8753 26.3069 57.6968C24.0776 61.2663 20.7802 64.0854 16.8721 65.7156Z" fill="#FF9100"/>
<path d="M26.3062 57.698C18.4558 50.4374 13.6934 39.9286 14.0959 28.4026C14.109 28.0281 14.1287 27.6541 14.1519 27.2802C10.6654 26.3762 7.00135 26.4146 3.53453 27.3913C1.43888 31.0622 0.174209 35.2742 0.0165988 39.7855C-0.389948 51.4294 6.65623 61.6029 16.8717 65.7168C20.7797 64.0866 24.0767 61.2704 26.3062 57.698Z" fill="#FFC400"/>
<path d="M26.3066 57.6976C28.1319 54.7768 29.2385 51.3523 29.3673 47.6629C29.7061 37.958 23.182 29.6094 14.1521 27.2798C14.129 27.6537 14.1094 28.0279 14.0963 28.4022C13.6938 39.9284 18.4562 50.437 26.3066 57.6976Z" fill="#FF9100"/>
<path d="M28.3575 0C23.2146 4.12018 19.1538 9.55259 16.6968 15.8107C15.2572 19.4792 14.3973 23.3493 14.1479 27.2822C23.1778 29.6116 29.7021 37.9604 29.3631 47.6653C29.2343 51.3545 28.1243 54.7757 26.3024 57.7C29.7749 60.9141 33.8168 63.4518 38.2204 65.1828C47.1512 61.0546 53.4876 52.1714 53.8546 41.6645C54.0922 34.857 51.4768 28.7897 47.7808 23.6685C43.8778 18.2521 28.3572 0 28.3572 0" fill="#DD2C00"/>
</g>
<defs>
<clipPath id="clip0_2003_11">
<rect width="53.8696" height="67.7578" fill="white"/>
</clipPath>
</defs>
</svg>
