<svg id="Artwork" xmlns="http://www.w3.org/2000/svg" xmlns:xlink="http://www.w3.org/1999/xlink" viewBox="0 0 449.43 165.19"><defs><style>.cls-1{fill:none;}.cls-2{fill:#fff;}.cls-3{fill:#231f20;}.cls-4{clip-path:url(#clip-path);}</style><clipPath id="clip-path" transform="translate(-25.5 -25.41)"><rect class="cls-1" x="53.33" y="76.23" width="148.88" height="60.11"/></clipPath></defs><rect class="cls-2" x="3.99" y="3.99" width="441.45" height="157.2"/><path class="cls-3" d="M25.5,25.41V190.59H474.93V25.41ZM470.94,186.6H29.49V29.4H470.94Zm-247.8-12.21h-2V41.61h2Z" transform="translate(-25.5 -25.41)"/><path class="cls-3" d="M261.47,78.8v26.29h-3.72V78.8Z" transform="translate(-25.5 -25.41)"/><path class="cls-3" d="M269.15,78.8h12.66c5.64,0,8.58,2.52,8.58,6.61a5.65,5.65,0,0,1-4.26,5.6c2.37.64,5.34,2.34,5.34,6.38,0,5.27-4.34,7.7-9.44,7.7H269.15Zm11.73,10.84c3.79,0,5.62-1.34,5.62-3.9,0-3-2.42-3.92-5.48-3.92h-8.19v7.82Zm-8.05,12.44h8.36c3.1,0,6.34-.94,6.34-4.68,0-3.16-2.49-4.75-6.69-4.75h-8Z" transform="translate(-25.5 -25.41)"/><path class="cls-3" d="M322.13,93.76c0-4.9,0-9.64.16-12.36h0c-1.3,4-5.86,14.65-9.61,23.69h-3.23c-2.82-7.36-7.82-19.52-9.27-23.67h0c.23,3,.37,8.57.37,13v10.66h-3.44V78.8h5.32c3.62,8.61,8.09,19.38,8.87,21.8h0c1.25-3.26,5.78-13.75,9.1-21.8h5.39v26.29h-3.63Z" transform="translate(-25.5 -25.41)"/><path class="cls-3" d="M344.54,105.09v-16H341V86.36h3.51V83.84c0-4.25,1.86-6.85,6.23-6.85a8.56,8.56,0,0,1,2.21.21v2.88a8.74,8.74,0,0,0-1.67-.16c-2.51,0-3.24,1.08-3.24,4.11v2.33h4.38v2.78h-4.38v16Z" transform="translate(-25.5 -25.41)"/><path class="cls-3" d="M374.11,95.72c0,5.2-3.37,9.89-10.09,9.89-6.34,0-9.87-4.69-9.87-9.86,0-5.37,3.74-9.9,10.05-9.9A9.57,9.57,0,0,1,374.11,95.72Zm-16.36,0c0,3.55,2.27,7,6.39,7,4.29,0,6.34-3.19,6.34-6.94s-2.27-7-6.43-7S357.75,92,357.75,95.75Z" transform="translate(-25.5 -25.41)"/><path class="cls-3" d="M378.71,91.46c0-1.69,0-3.41,0-5.1h3.42c.06.56.14,2.53.14,4.22a7.75,7.75,0,0,1,7.57-4.72v3.37c-4.3,0-7.57,2.53-7.57,8v7.81h-3.52Z" transform="translate(-25.5 -25.41)"/><path class="cls-3" d="M259.41,127.45c.95,3.07,3.21,5.24,8.38,5.24s7.15-2,7.15-4.45c0-2.59-1.45-4.18-8.22-5.32-7.91-1.34-9.8-3.82-9.8-7.4,0-4.62,4.39-7.26,10.11-7.26,8.55,0,10.57,4.47,10.86,7.13h-3.76c-.54-1.79-1.65-4.16-7.19-4.16-3.78,0-6.22,1.29-6.22,3.93,0,2.15,1.07,3.5,7,4.51,9.49,1.61,11,4.55,11,8.19,0,4.19-3.34,7.77-11.25,7.77-7.35,0-11.06-3.34-11.91-8.18Z" transform="translate(-25.5 -25.41)"/><path class="cls-3" d="M281.57,116.36h3.72v-6h3.53v6h4.89v2.78h-4.89v10.25c0,2.15.55,3.1,2.59,3.1a8.8,8.8,0,0,0,1.84-.16v2.59a8.76,8.76,0,0,1-2.9.34c-3.88,0-5.06-1.73-5.06-5.42v-10.7h-3.72Z" transform="translate(-25.5 -25.41)"/><path class="cls-3" d="M314.06,130.46c0,1.82.11,4.2.18,4.63h-3.35a20.25,20.25,0,0,1-.23-2.74c-1,1.94-3.1,3.26-7.07,3.26-5.29,0-7.24-3.21-7.24-6,0-4.79,4.36-6.12,9.7-6.12h4.57v-1c0-2-.88-4-4.87-4-3.59,0-4.43,1.58-4.8,3.3h-3.52c.22-2.48,1.88-6,8.31-6,6.81,0,8.32,3.32,8.32,6.42ZM310.62,126h-4.48c-4.3,0-6.31,1-6.31,3.45,0,1.87,1.37,3.43,4.48,3.43,5,0,6.31-2.9,6.31-6.06Z" transform="translate(-25.5 -25.41)"/><path class="cls-3" d="M320.25,121.46c0-1.69,0-3.41,0-5.1h3.42c.06.56.14,2.53.14,4.22a7.75,7.75,0,0,1,7.58-4.72v3.37c-4.31,0-7.58,2.53-7.58,8v7.81h-3.52Z" transform="translate(-25.5 -25.41)"/><path class="cls-3" d="M333.85,116.36h3.72v-6h3.53v6H346v2.78H341.1v10.25c0,2.15.55,3.1,2.59,3.1a8.8,8.8,0,0,0,1.84-.16v2.59a8.76,8.76,0,0,1-2.9.34c-3.88,0-5.06-1.73-5.06-5.42v-10.7h-3.72Z" transform="translate(-25.5 -25.41)"/><path class="cls-3" d="M366.72,129.63c0,1.82,0,3.64,0,5.46h-3.39a30.79,30.79,0,0,1-.14-3.17c-.94,2.13-2.62,3.69-6.72,3.69s-7-2.17-7-7.63V116.36H353v11c0,2.83,1.12,5.29,4.48,5.29,4,0,5.75-2.35,5.75-7.8v-8.47h3.52Z" transform="translate(-25.5 -25.41)"/><path class="cls-3" d="M376.23,132.32v11h-3.52V121c0-1.56,0-3.12,0-4.68h3.43c.07.54.12,1.81.12,3.23,1.1-2,3.29-3.74,7.21-3.74,5,0,8.72,4.13,8.72,9.55,0,6.12-4.23,10.21-9.31,10.21C379,135.61,377.25,133.92,376.23,132.32Zm12.3-6.78c0-3.32-1.92-6.74-6.13-6.74-4.37,0-6.26,3.08-6.26,7s2.05,6.82,6.18,6.82S388.53,129.29,388.53,125.54Z" transform="translate(-25.5 -25.41)"/><path class="cls-3" d="M398.81,129.42c.67,2.22,2.57,3.51,6,3.51,3.6,0,4.87-1.26,4.87-2.93s-.94-2.62-5.7-3.19c-6.58-.82-7.82-3.12-7.82-5.45s1.93-5.51,7.92-5.51c6.48,0,8.31,3.34,8.5,5.59H409c-.28-1.13-1.05-3-5.17-3-3.46,0-4.2,1.49-4.2,2.56,0,1.4.88,2.23,5.17,2.8,7,1,8.35,3.12,8.35,5.9,0,3.36-2.56,5.87-8.61,5.87-5.46,0-8.64-2.31-9.29-6.19Z" transform="translate(-25.5 -25.41)"/><polygon class="cls-3" points="176.71 55.1 151.93 55.1 153.46 50.83 176.71 50.83 176.71 55.1 176.71 55.1"/><path class="cls-3" d="M136.15,76.23h23l1.5,4.29H136.15s0-4.29,0-4.29Z" transform="translate(-25.5 -25.41)"/><path class="cls-3" d="M117.87,76.23a16.61,16.61,0,0,1,9.9,4.28H86.06V76.23Z" transform="translate(-25.5 -25.41)"/><polygon class="cls-3" points="27.83 50.83 56.81 50.83 56.81 55.1 27.83 55.1 27.83 50.83 27.83 50.83"/><path class="cls-3" d="M202.21,88.53H174.59s1.5-4.25,1.5-4.26h26.12v4.26Z" transform="translate(-25.5 -25.41)"/><polygon class="cls-3" points="138.01 63.13 110.64 63.13 110.64 58.87 136.51 58.87 138.01 63.13 138.01 63.13"/><path class="cls-3" d="M131,84.27a11.09,11.09,0,0,1,1.2,4.25H86.07V84.27Z" transform="translate(-25.5 -25.41)"/><polygon class="cls-3" points="27.83 58.87 56.81 58.87 56.81 63.12 27.83 63.12 27.83 58.87 27.83 58.87"/><polygon class="cls-3" points="146.26 71.16 147.78 66.89 168.52 66.89 168.52 71.15 146.26 71.16 146.26 71.16"/><polygon class="cls-3" points="139.34 66.88 140.85 71.16 118.8 71.16 118.8 66.88 139.34 66.88 139.34 66.88"/><path class="cls-3" d="M132.58,92.29a13.83,13.83,0,0,1-.61,4.27H119.34V92.29Z" transform="translate(-25.5 -25.41)"/><polygon class="cls-3" points="35.91 66.9 48.36 66.9 48.36 71.16 35.91 71.16 35.91 66.9 35.91 66.9"/><polygon class="cls-3" points="68.95 66.88 81.39 66.88 81.39 71.16 68.95 71.16 68.95 66.88 68.95 66.88"/><path class="cls-3" d="M156.55,101.18v3.24H144.3v-4.26h23.34l1.45,4s1.4-4,1.4-4H194v4.26H181.83s0-3.24,0-3.24l-1.13,3.24h-23l-1.13-3.23Z" transform="translate(-25.5 -25.41)"/><path class="cls-3" d="M94.45,100.16h35.69a16.06,16.06,0,0,1-3.54,4.26H94.45v-4.26Z" transform="translate(-25.5 -25.41)"/><polygon class="cls-3" points="35.91 74.76 48.36 74.76 48.36 79.01 35.91 79.01 35.91 74.76 35.91 74.76"/><polygon class="cls-3" points="156.33 82.78 168.51 82.78 168.51 87.03 156.33 87.03 156.33 82.78 156.33 82.78"/><path class="cls-3" d="M156.55,108.18H144.3v4.25h12.25s0-4.25,0-4.25Z" transform="translate(-25.5 -25.41)"/><path class="cls-3" d="M179.36,108.18c-.05,0-1.42,4.25-1.48,4.25H160.52s-1.53-4.27-1.53-4.26Z" transform="translate(-25.5 -25.41)"/><path class="cls-3" d="M94.45,108.18h32.09a21,21,0,0,1,3.82,4.25H94.45v-4.25Z" transform="translate(-25.5 -25.41)"/><path class="cls-3" d="M73.86,112.43v-4.25H61.43v4.25Z" transform="translate(-25.5 -25.41)"/><polygon class="cls-3" points="156.33 90.79 168.51 90.79 168.51 95.05 156.33 95.05 156.33 90.79 156.33 90.79"/><polygon class="cls-3" points="118.8 90.79 131.05 90.79 131.05 95.05 118.8 95.05 118.8 90.79 118.8 90.79"/><path class="cls-3" d="M175,120.47s1.5-4.28,1.53-4.27H161.8s1.51,4.25,1.51,4.25,11.72,0,11.72,0Z" transform="translate(-25.5 -25.41)"/><path class="cls-3" d="M94.45,120.45V116.2h12.62s0,4.25,0,4.25Z" transform="translate(-25.5 -25.41)"/><path class="cls-3" d="M132.14,116.2a12.31,12.31,0,0,1,.79,4.27H119.56V116.2Z" transform="translate(-25.5 -25.41)"/><polygon class="cls-3" points="35.93 90.79 48.36 90.79 48.36 95.04 35.93 95.04 35.93 90.79 35.93 90.79"/><polygon class="cls-3" points="156.33 98.64 176.71 98.64 176.71 102.9 156.33 102.9 156.33 98.64 156.33 98.64"/><polygon class="cls-3" points="110.64 98.64 131.05 98.64 131.05 102.9 110.64 102.9 110.64 98.64 110.64 98.64"/><g class="cls-4"><polygon class="cls-3" points="146.79 102.9 140.56 102.9 139.07 98.64 148.23 98.64 146.79 102.9 146.79 102.9"/><path class="cls-3" d="M53.33,124.05v4.25h29s0-4.25,0-4.25Z" transform="translate(-25.5 -25.41)"/></g><path class="cls-3" d="M132.4,124.05c-.31,1.4-.59,3.11-1.61,4.26H86.07v-4.25Z" transform="translate(-25.5 -25.41)"/><polygon class="cls-3" points="143.97 110.93 143.39 110.93 141.94 106.67 145.46 106.67 143.97 110.93 143.97 110.93"/><polygon class="cls-3" points="156.33 106.67 176.71 106.67 176.71 110.94 156.33 110.94 156.33 106.67 156.33 106.67"/><path class="cls-3" d="M86.06,136.33v-4.25H128a15.86,15.86,0,0,1-10.81,4.26H86.07" transform="translate(-25.5 -25.41)"/><g class="cls-4"><polygon class="cls-3" points="110.64 106.67 131.05 106.67 131.05 110.94 110.64 110.94 110.64 106.67 110.64 106.67"/><path class="cls-3" d="M82.28,132.09s0,4.24,0,4.24-28.94,0-28.95,0,0-4.26,0-4.26,28.94,0,29,0Z" transform="translate(-25.5 -25.41)"/></g></svg>