<svg width="800" height="203" viewBox="0 0 800 203" fill="none" xmlns="http://www.w3.org/2000/svg">
<path d="M172.298 0.000541426C175.51 -0.0137038 178.693 0.627643 181.666 1.88879C184.639 3.14993 187.343 5.00582 189.625 7.35061C191.906 9.69566 193.72 12.4835 194.962 15.5553C196.204 18.6271 196.851 21.9225 196.865 25.2536V176.825C196.844 180.156 196.19 183.45 194.941 186.519C193.692 189.588 191.873 192.371 189.587 194.711C187.3 197.051 184.592 198.901 181.616 200.155C178.64 201.409 175.456 202.043 172.243 202.022H24.6217C21.405 202.043 18.2158 201.407 15.2366 200.15C12.2572 198.892 9.54667 197.037 7.25953 194.691C4.97239 192.346 3.15394 189.555 1.90842 186.48C0.662626 183.404 0.0142761 180.104 0 176.769V25.2536C0.0142761 21.9179 0.662626 18.6177 1.90842 15.5424C3.15394 12.4668 4.97239 9.67653 7.25953 7.33067C9.54667 4.98508 12.2572 3.13027 15.2366 1.87263C18.2158 0.614714 21.405 -0.0212459 24.6217 0.000541426H172.298ZM32.1608 141.554C30.4374 141.691 28.8364 142.528 27.7061 143.884C27.1574 144.554 26.7418 145.33 26.483 146.167C26.2241 147.004 26.1271 147.885 26.1974 148.761C26.268 149.637 26.5042 150.49 26.8932 151.271C27.2822 152.052 27.8158 152.745 28.4638 153.312C29.492 154.21 53.6805 175.141 98.3243 175.141C142.968 175.141 167.319 154.098 168.185 153.199L168.239 153.256C169.516 152.097 170.3 150.463 170.422 148.708C170.544 146.954 169.992 145.22 168.888 143.884C167.741 142.537 166.133 141.708 164.405 141.571C162.677 141.435 160.965 142.003 159.635 143.155C159.418 143.323 137.502 161.729 98.2702 161.729C59.0378 161.729 37.2843 143.435 36.9053 143.155C35.5898 141.993 33.8842 141.417 32.1608 141.554ZM676.628 63.6337C697.384 63.6337 706.362 77.9289 706.362 100.882C706.362 124.137 697.285 138.131 676.628 138.131C655.585 138.131 646.796 124.137 646.796 100.882C646.796 78.333 655.677 63.6337 676.628 63.6337ZM98.5409 26.8808C96.8043 26.8808 95.1389 27.5963 93.9108 28.8698C92.6828 30.1431 91.993 31.8702 91.993 33.6711V131.314C91.993 133.115 92.6828 134.842 93.9108 136.115C95.1389 137.389 96.8043 138.104 98.5409 138.104C100.277 138.104 101.943 137.389 103.171 136.115C104.399 134.842 105.088 133.115 105.088 131.314V33.6711C105.088 31.8702 104.399 30.1431 103.171 28.8698C101.943 27.5963 100.277 26.8808 98.5409 26.8808ZM606.928 63.6337C614.554 63.6337 620.444 65.4487 624.884 69.3735C628.746 72.5932 631.545 77.1273 633.185 83.4702C634.053 86.7922 631.833 90.1142 628.167 90.8197C624.692 91.4228 621.896 89.1074 620.832 85.7854C619.674 82.566 618.125 80.2505 616.294 78.6344C613.783 76.3192 610.696 75.3124 606.637 75.3124C602.295 75.3124 598.527 76.6206 595.728 79.5386C591.674 83.7652 589.934 91.3202 589.934 100.882C589.934 110.348 591.577 117.897 595.825 122.123C598.624 125.041 602.295 126.35 606.54 126.35C610.979 126.35 614.357 125.144 617.161 122.425C618.605 121.014 619.865 119.205 620.733 117.089C621.988 113.966 624.595 111.65 627.97 112.458C631.348 113.267 633.476 116.685 632.412 120.007C630.672 125.542 627.682 129.973 623.628 132.994C619.189 136.316 613.686 138.028 606.737 138.028C597.856 138.028 592.253 135.309 588.003 131.487C580.765 124.74 577.481 114.171 577.481 100.882C577.481 87.4912 580.668 77.0247 587.814 70.3804C592.253 66.3529 598.236 63.6337 606.928 63.6337ZM517.547 64.7341L517.926 64.7432H540.803C556.541 64.7432 563.103 75.415 563.103 86.2856C563.103 96.4771 557.507 104.042 547.875 106.212L547.364 106.321L559.432 128.665C561.075 131.583 560.011 135.309 556.633 137.124C553.452 138.783 549.998 137.607 548.299 134.879L548.14 134.61L534.721 108.739H521.98L522.077 130.685C522.077 134.11 519.569 136.925 515.995 136.925C512.628 136.925 510.17 134.277 510.019 131.004L510.012 130.685V72.6958C510.012 67.7241 512.538 64.842 517.176 64.7367L517.547 64.7341ZM313.077 64.7367C319.16 64.7367 321.667 68.1617 324.083 73.196L336.051 97.6628L346.284 121.424L345.996 98.6697L345.899 71.1887C345.899 67.7638 348.407 64.9485 351.981 64.9485C355.448 64.942 357.958 67.7576 357.958 71.1823V125.548C357.958 132.898 354.195 137.028 348.21 137.028H347.731C342.036 137.028 339.329 133.603 336.919 128.569L324.754 103.903L313.942 78.4356L314.233 103.101L314.33 130.583C314.33 134.007 311.822 136.823 308.248 136.823C304.773 136.823 302.265 134.001 302.265 130.583V76.2166C302.265 69.4699 306.028 64.7367 312.595 64.7367H313.077ZM273.974 64.942C277.449 64.942 279.96 67.7638 279.96 71.1823V130.679C279.96 134.103 277.449 136.919 273.877 136.919C270.403 136.919 267.892 134.097 267.892 130.679V71.1823C267.892 67.7573 270.403 64.942 273.974 64.942ZM789.379 64.9485C796.137 64.9485 799.9 69.1747 799.9 76.7297L800 130.582C800 134.007 797.49 136.823 793.918 136.823C790.443 136.823 787.933 134.001 787.933 130.582V103.602L788.224 77.3261L779.822 104.006L771.329 130.281C769.886 134.912 766.89 136.726 763.125 136.726C759.165 136.726 756.269 134.815 754.726 130.185L746.036 104.012L738.023 77.7366L738.311 103.608V130.589C738.311 134.014 735.801 136.829 732.229 136.829C728.754 136.829 726.246 134.007 726.246 130.589V76.7297C726.246 69.2773 730.106 64.9485 736.865 64.9485C743.238 64.9485 746.809 68.4693 748.832 74.9148L757.713 102.396L763.119 121.123L768.622 102.396L777.503 74.9148C779.534 68.4693 783.009 64.9485 789.379 64.9485ZM421.288 64.9485C424.374 64.9485 426.885 67.3662 426.885 70.887C426.885 74.312 424.374 76.7233 421.288 76.7233H406.325V130.583C406.325 134.007 403.817 136.823 400.242 136.823C396.77 136.823 394.26 134.001 394.26 130.583V76.7233H379.297C376.21 76.7233 373.702 74.3055 373.702 70.7844C373.702 67.3598 376.21 64.9485 379.297 64.9485H421.288ZM450.537 64.7432H485.29C488.377 64.7432 490.885 67.2571 490.885 70.6821C490.885 74.1067 488.377 76.518 485.29 76.518H454.589V93.8341H481.716C484.711 93.8341 487.122 96.1493 487.122 99.4716C487.122 102.794 484.711 105.109 481.716 105.109H454.589V125.041H485.29C488.377 125.041 490.885 127.556 490.885 130.98C490.885 134.405 488.377 136.816 485.29 136.816H450.246C445.228 136.823 442.432 133.905 442.621 128.569V72.6958C442.621 67.4624 445.42 64.5444 450.537 64.7432ZM65.9103 30.5845C64.1678 30.4927 62.4609 31.12 61.1631 32.3292C59.8651 33.5386 59.0817 35.2315 58.9837 37.0381V126.825C58.9837 128.625 59.6735 130.353 60.9015 131.626C62.1296 132.899 63.795 133.615 65.5316 133.615C67.2681 133.615 68.9336 132.899 70.1616 131.626C71.3894 130.353 72.0792 128.625 72.0792 126.825V37.0381C72.0016 35.3619 71.3282 33.7751 70.1891 32.5835C69.05 31.3918 67.5257 30.6796 65.9103 30.5845ZM131.009 30.2478C129.272 30.2478 127.607 30.9633 126.379 32.2368C125.151 33.5101 124.461 35.2372 124.461 37.0381V126.825C124.461 128.625 125.151 130.353 126.379 131.626C127.607 132.899 129.272 133.615 131.009 133.615C132.746 133.615 134.411 132.899 135.639 131.626C136.867 130.353 137.557 128.625 137.557 126.825V37.0381C137.557 35.2372 136.867 33.5101 135.639 32.2368C134.411 30.9633 132.746 30.2478 131.009 30.2478ZM676.531 75.415C665.234 75.415 659.248 83.7716 659.248 100.882C659.248 117.999 665.042 126.35 676.531 126.35C687.919 126.35 694.001 117.993 694.001 100.882C694.001 83.7652 688.019 75.415 676.531 75.415ZM163.91 43.7159C162.173 43.7159 160.508 44.4313 159.28 45.7048C158.052 46.9781 157.362 48.7052 157.362 50.5062V111.168C157.362 112.969 158.052 114.696 159.28 115.97C160.508 117.243 162.173 117.958 163.91 117.958C165.647 117.958 167.312 117.243 168.54 115.97C169.768 114.696 170.458 112.969 170.458 111.168V50.5062C170.458 48.7052 169.768 46.9781 168.54 45.7048C167.312 44.4313 165.647 43.7159 163.91 43.7159ZM33.0634 44.0526C31.3209 43.9607 29.614 44.588 28.3162 45.7972C27.0182 47.0066 26.2346 48.6996 26.1368 50.5062V111.056C26.1368 112.857 26.8267 114.584 28.0547 115.857C29.2827 117.131 30.9481 117.846 32.6847 117.846C34.4213 117.846 36.0867 117.131 37.3145 115.857C38.5425 114.584 39.2323 112.857 39.2323 111.056V50.5062C39.1547 48.8299 38.4813 47.2431 37.3422 46.0515C36.2031 44.8598 34.6788 44.1476 33.0634 44.0526ZM540.989 76.5118H521.972V97.3552H541.086C547.556 97.3552 550.933 93.026 550.933 86.8822C550.933 80.7381 547.359 76.5118 540.989 76.5118Z" fill="black"/>
</svg>
