<svg width="1103" height="444" viewBox="0 0 1103 444" fill="none" xmlns="http://www.w3.org/2000/svg">
<path d="M503.665 292.79V199.446H505.311L572.587 292.79H593.758V155.713H570.235V248.822H568.588L501.312 155.713H480.142V292.79H503.665ZM660.328 294.906C691.378 294.906 710.432 274.686 710.432 240.828C710.432 207.205 691.378 186.75 660.328 186.75C629.513 186.75 610.224 207.205 610.224 240.828C610.459 274.686 629.277 294.906 660.328 294.906ZM660.328 275.156C643.862 275.156 634.452 262.695 634.452 240.828C634.452 219.197 643.862 206.5 660.328 206.5C676.794 206.5 686.203 219.197 686.203 240.828C686.203 262.695 676.794 275.156 660.328 275.156ZM731.838 163.473V189.571H715.371V208.381H731.838V265.046C731.838 285.266 741.247 293.261 765.24 293.261C769.71 293.261 774.179 292.79 777.707 292.085V273.745C774.885 273.98 773.003 274.216 769.71 274.216C759.83 274.216 755.361 269.748 755.361 259.403V208.381H777.707V189.571H755.361V163.473H731.838ZM791.821 292.79H815.344V188.866H791.821V292.79ZM803.583 171.702C811.345 171.702 817.697 165.354 817.697 157.594C817.697 149.6 811.345 143.252 803.583 143.252C795.82 143.252 789.469 149.6 789.469 157.594C789.469 165.354 795.82 171.702 803.583 171.702ZM879.797 294.906C910.848 294.906 929.901 274.686 929.901 240.828C929.901 207.205 910.848 186.75 879.797 186.75C848.982 186.75 829.693 207.205 829.693 240.828C829.693 274.686 848.512 294.906 879.797 294.906ZM879.797 275.156C863.331 275.156 853.922 262.695 853.922 240.828C853.922 219.197 863.331 206.5 879.797 206.5C896.028 206.5 905.672 219.197 905.672 240.828C905.437 262.695 896.028 275.156 879.797 275.156ZM943.78 292.79H967.303V232.364C967.303 217.081 976.241 207.441 990.12 207.441C1004.47 207.441 1011.06 215.435 1011.06 231.188V292.79H1034.58V225.545C1034.58 200.622 1021.88 186.75 998.824 186.75C983.298 186.75 972.948 193.803 968.008 205.56H966.362V188.866H943.544C943.78 188.866 943.78 292.79 943.78 292.79Z" fill="black"/>
<path fill-rule="evenodd" clip-rule="evenodd" d="M119.769 110.979C130.825 120.044 134.823 119.328 155.524 117.897L350.529 105.969C354.763 105.969 351.235 101.675 349.824 101.198L317.362 77.5812C311.246 72.8101 302.778 67.0848 287.017 68.5161L98.3629 82.5907C91.5412 83.3064 90.1298 86.8847 92.9526 89.5088L119.769 110.979ZM131.53 157.019V365.037C131.53 376.249 136.941 380.304 149.408 379.589L363.702 366.945C376.169 366.23 377.581 358.596 377.581 349.531V142.945C377.581 133.88 374.052 128.87 366.525 129.586L142.586 142.945C134.353 143.66 131.53 147.954 131.53 157.019ZM343.002 168.231C344.413 174.434 343.002 180.874 336.886 181.59L326.536 183.737V337.365C317.597 342.136 309.364 344.999 302.307 344.999C291.251 344.999 288.429 341.42 280.196 330.924L212.685 223.337V327.346L234.091 332.117C234.091 332.117 234.091 344.76 216.919 344.76L169.402 347.623C167.991 344.76 169.402 337.842 174.107 336.411L186.574 332.832V195.426L169.402 193.995C167.991 187.792 171.519 178.727 181.164 178.012L232.209 174.433L302.542 283.214V187.077L284.665 184.93C283.254 177.296 288.899 171.571 295.721 170.855L343.002 168.231ZM82.6024 63.5065L279.019 48.9548C303.013 46.8078 309.364 48.2392 324.419 59.4511L386.99 104.06C397.34 111.694 400.868 113.841 400.868 122.19V367.184C400.868 382.451 395.458 391.516 376.169 392.948L148.232 407.022C133.647 407.738 126.826 405.591 119.298 395.81L72.958 334.979C64.725 323.767 61.1965 315.418 61.1965 305.637V87.8389C61.1965 75.1956 66.842 64.9378 82.6024 63.5065Z" fill="black"/>
</svg>
