<svg width="1440" height="1024" viewBox="0 0 1440 1024" fill="none" xmlns="http://www.w3.org/2000/svg">
<rect width="1440" height="1024" fill="#0A1420"/>
<path d="M299.273 429.945C279.229 403.852 259.865 391.958 228 375.907C266.858 360.813 290.145 366.653 333.289 399.275C364.57 423.448 384.398 434.146 424 448.932C382.124 458.087 359.164 457.906 320.331 444.55C232.885 529.257 283.1 660.701 414.281 647.56C263.662 694.293 164.852 536.559 299.273 429.945Z" fill="#F3F6FF"/>
<path d="M354 607.005C318.206 584.286 312 589.399 312 589.399C321.692 582.062 315.914 582.047 383.077 586.463C484.846 599.668 489.692 366.389 323.308 389.864C459 339.98 565.615 489.63 438 607.005L459 626.078C473.806 637.942 483.288 638.932 501 640.749C445.041 679.369 389.794 629.723 354 607.005Z" fill="#F3F6FF"/>
<rect x="573" y="368" width="9" height="288" rx="4.5" fill="#F3F6FF"/>
<path d="M724.68 573.54C716.233 573.54 708.837 572.187 702.49 569.48C696.143 566.727 690.847 562.97 686.6 558.21C682.4 553.403 679.25 547.897 677.15 541.69C675.05 535.483 674 528.927 674 522.02C674 512.313 675.96 503.563 679.88 495.77C683.847 487.977 689.563 481.793 697.03 477.22C704.497 472.647 713.573 470.36 724.26 470.36C732.38 470.36 739.543 471.69 745.75 474.35C752.003 477.01 757.253 480.697 761.5 485.41C765.747 490.123 768.943 495.607 771.09 501.86C773.237 508.113 774.31 514.81 774.31 521.95C774.31 531.797 772.35 540.617 768.43 548.41C764.51 556.157 758.84 562.293 751.42 566.82C744 571.3 735.087 573.54 724.68 573.54ZM724.33 562.62C730.723 562.62 736.23 561.523 740.85 559.33C745.47 557.09 749.273 554.057 752.26 550.23C755.293 546.403 757.533 542.063 758.98 537.21C760.427 532.31 761.15 527.223 761.15 521.95C761.15 516.257 760.357 510.96 758.77 506.06C757.23 501.113 754.897 496.797 751.77 493.11C748.69 489.377 744.863 486.483 740.29 484.43C735.717 482.33 730.397 481.28 724.33 481.28C718.077 481.28 712.617 482.377 707.95 484.57C703.33 486.763 699.48 489.773 696.4 493.6C693.32 497.38 691.01 501.72 689.47 506.62C687.93 511.473 687.16 516.583 687.16 521.95C687.16 527.363 687.907 532.497 689.4 537.35C690.893 542.203 693.157 546.543 696.19 550.37C699.27 554.15 703.143 557.137 707.81 559.33C712.477 561.523 717.983 562.62 724.33 562.62ZM809.784 572C809.784 566.447 809.784 561.103 809.784 555.97C809.784 550.837 809.784 545.19 809.784 539.03V505.5C809.784 499.293 809.784 493.577 809.784 488.35C809.784 483.123 809.784 477.733 809.784 472.18C812.444 472.18 815.5 472.18 818.954 472.18C822.454 472.18 826.257 472.18 830.364 472.18C834.517 472.18 838.904 472.18 843.524 472.18C851.13 472.18 857.454 473.09 862.494 474.91C867.58 476.683 871.384 479.553 873.904 483.52C876.47 487.487 877.754 492.713 877.754 499.2C877.754 504.66 876.68 509.653 874.534 514.18C872.434 518.707 868.91 522.347 863.964 525.1C859.017 527.807 852.32 529.183 843.874 529.23L847.864 523.7L863.614 543.37C866.087 546.403 868.7 549.647 871.454 553.1C874.207 556.553 876.89 559.937 879.504 563.25C882.117 566.517 884.45 569.433 886.504 572H871.664C868.35 567.8 865.154 563.74 862.074 559.82C859.04 555.9 856.03 552.073 853.044 548.34L835.124 525.24L842.894 531.47H820.004V521.04H838.974C844.807 521.04 849.614 520.363 853.394 519.01C857.174 517.657 859.997 515.487 861.864 512.5C863.73 509.467 864.664 505.453 864.664 500.46C864.664 496.307 863.987 493.04 862.634 490.66C861.327 488.233 859.577 486.46 857.384 485.34C855.237 484.22 852.904 483.497 850.384 483.17C847.864 482.843 845.437 482.68 843.104 482.68H813.704L822.174 474C822.174 479.74 822.174 485.2 822.174 490.38C822.174 495.56 822.174 501.207 822.174 507.32V539.03C822.174 545.19 822.174 550.837 822.174 555.97C822.174 561.103 822.174 566.447 822.174 572H809.784ZM994.205 595.59C991.265 593.117 988.325 590.667 985.385 588.24C982.492 585.86 979.575 583.457 976.635 581.03L965.365 571.65L972.295 564.37L986.295 575.22C989.328 577.6 992.362 579.957 995.395 582.29C998.475 584.67 1001.86 587.307 1005.55 590.2L994.205 595.59ZM961.515 573.54C953.068 573.54 945.672 572.187 939.325 569.48C932.978 566.727 927.682 562.97 923.435 558.21C919.235 553.403 916.085 547.897 913.985 541.69C911.885 535.483 910.835 528.927 910.835 522.02C910.835 512.313 912.795 503.563 916.715 495.77C920.682 487.977 926.398 481.793 933.865 477.22C941.332 472.647 950.408 470.36 961.095 470.36C969.215 470.36 976.378 471.69 982.585 474.35C988.838 477.01 994.088 480.697 998.335 485.41C1002.58 490.123 1005.78 495.607 1007.93 501.86C1010.07 508.113 1011.15 514.81 1011.15 521.95C1011.15 531.797 1009.19 540.617 1005.27 548.41C1001.35 556.157 995.675 562.293 988.255 566.82C980.835 571.3 971.922 573.54 961.515 573.54ZM961.165 562.62C967.558 562.62 973.065 561.523 977.685 559.33C982.305 557.09 986.108 554.057 989.095 550.23C992.128 546.403 994.368 542.063 995.815 537.21C997.262 532.31 997.985 527.223 997.985 521.95C997.985 516.257 997.192 510.96 995.605 506.06C994.065 501.113 991.732 496.797 988.605 493.11C985.525 489.377 981.698 486.483 977.125 484.43C972.552 482.33 967.232 481.28 961.165 481.28C954.912 481.28 949.452 482.377 944.785 484.57C940.165 486.763 936.315 489.773 933.235 493.6C930.155 497.38 927.845 501.72 926.305 506.62C924.765 511.473 923.995 516.583 923.995 521.95C923.995 527.363 924.742 532.497 926.235 537.35C927.728 542.203 929.992 546.543 933.025 550.37C936.105 554.15 939.978 557.137 944.645 559.33C949.312 561.523 954.818 562.62 961.165 562.62ZM1084.84 573.54C1075.55 573.54 1067.99 571.953 1062.16 568.78C1056.37 565.56 1052.1 561.057 1049.35 555.27C1046.64 549.437 1045.29 542.647 1045.29 534.9C1045.29 532.94 1045.29 530.42 1045.29 527.34C1045.29 524.213 1045.29 520.76 1045.29 516.98C1045.29 513.2 1045.29 509.397 1045.29 505.57C1045.29 499.27 1045.29 493.53 1045.29 488.35C1045.29 483.123 1045.29 477.733 1045.29 472.18H1057.89C1057.89 477.733 1057.89 483.123 1057.89 488.35C1057.89 493.53 1057.89 499.27 1057.89 505.57V533.64C1057.89 539.66 1058.78 544.84 1060.55 549.18C1062.32 553.52 1065.17 556.857 1069.09 559.19C1073.06 561.477 1078.31 562.62 1084.84 562.62C1091.42 562.62 1096.65 561.477 1100.52 559.19C1104.44 556.857 1107.26 553.52 1108.99 549.18C1110.72 544.84 1111.58 539.613 1111.58 533.5V505.57C1111.58 499.27 1111.58 493.53 1111.58 488.35C1111.58 483.123 1111.58 477.733 1111.58 472.18H1124.18C1124.18 477.733 1124.18 483.123 1124.18 488.35C1124.18 493.53 1124.18 499.27 1124.18 505.57C1124.18 509.397 1124.18 513.223 1124.18 517.05C1124.18 520.83 1124.18 524.283 1124.18 527.41C1124.18 530.537 1124.18 533.033 1124.18 534.9C1124.18 542.647 1122.8 549.437 1120.05 555.27C1117.3 561.057 1113.03 565.56 1107.24 568.78C1101.45 571.953 1093.99 573.54 1084.84 573.54ZM1164.28 572C1164.28 566.447 1164.28 561.103 1164.28 555.97C1164.28 550.837 1164.28 545.19 1164.28 539.03V505.5C1164.28 499.293 1164.28 493.577 1164.28 488.35C1164.28 483.123 1164.28 477.733 1164.28 472.18H1226.3V483.03C1221.64 483.03 1216.62 483.03 1211.25 483.03C1205.93 483.03 1199.63 483.03 1192.35 483.03H1169.67L1176.67 474C1176.67 479.6 1176.67 485.013 1176.67 490.24C1176.67 495.42 1176.67 501.113 1176.67 507.32V537.14C1176.67 543.253 1176.67 548.9 1176.67 554.08C1176.67 559.213 1176.67 564.557 1176.67 570.11L1170.37 561.15H1193.47C1199.59 561.15 1205.35 561.15 1210.76 561.15C1216.22 561.15 1221.45 561.15 1226.44 561.15V572H1164.28ZM1173.94 526.71V516.14H1193.33C1199.77 516.14 1205.33 516.14 1209.99 516.14C1214.66 516.14 1219.16 516.14 1223.5 516.14V526.71C1218.93 526.71 1214.31 526.71 1209.64 526.71C1205.02 526.71 1199.56 526.71 1193.26 526.71H1173.94Z" fill="white"/>
</svg>
