<svg width="76" height="82" viewBox="0 0 76 82" fill="none" xmlns="http://www.w3.org/2000/svg">
<g clip-path="url(#clip0_2001_28)">
<path d="M43.0962 12.4402V24.8817L64.6437 37.3233V24.8817L43.0962 12.4402ZM0 24.8817V37.3233L10.7736 43.5426V31.1025L0 24.8817ZM32.3211 31.1025L21.5475 37.323V74.6447L32.3211 80.8655V55.9838L43.0962 62.2046V49.7631L32.3211 43.5426V31.1025Z" fill="#E55B2D"/>
<path d="M43.0961 12.4402L10.7736 31.1025V43.5426L32.3211 31.1025V43.5426L43.0961 37.3233V12.4402ZM75.4187 18.661L64.6437 24.8817V37.3233L75.4187 31.1025V18.661ZM53.87 43.5426L43.0964 49.7634V62.2049L53.87 55.9838V43.5426ZM43.0964 62.2049L32.3211 55.9838V80.8655L43.0961 74.6447L43.0964 62.2049Z" fill="#ED8E24"/>
<path d="M43.0962 0L0 24.8816L10.7736 31.1024L43.0962 12.4401L64.6437 24.8816L75.4188 18.6608L43.0962 0ZM43.0962 37.3229L32.3211 43.5422L43.0962 49.7632L53.8698 43.5425L43.0962 37.3229Z" fill="#F8BF3C"/>
</g>
<defs>
<clipPath id="clip0_2001_28">
<rect width="75.708" height="81.0312" fill="white"/>
</clipPath>
</defs>
</svg>
